<?xml version="1.0" encoding="UTF-8"?>
<svg id="svg" version="1.1" width="500" height="500" viewBox="0 0 500 500" xmlns="http://www.w3.org/2000/svg" xmlns:xlink="http://www.w3.org/1999/xlink"><path d="M224.379 80.437 C 222.663 81.184,219.963 83.493,218.379 85.570 C 214.701 90.391,214.323 98.277,217.562 102.615 C 224.940 112.497,238.802 112.188,243.987 102.026 C 250.802 88.667,237.960 74.526,224.379 80.437 M257.009 80.855 C 252.896 83.062,249.000 89.830,249.000 94.771 C 249.000 106.256,263.584 114.125,273.048 107.747 C 286.204 98.881,280.489 79.000,264.784 79.000 C 262.411 79.000,258.912 79.835,257.009 80.855 M292.401 83.897 C 288.606 86.212,285.783 92.665,286.656 97.032 C 286.996 98.730,288.561 101.407,290.134 102.980 C 295.513 108.359,302.936 108.115,307.958 102.395 C 317.132 91.947,304.273 76.658,292.401 83.897 M188.974 85.872 C 181.159 93.688,186.112 106.000,197.071 106.000 C 204.217 106.000,209.770 98.533,207.855 91.500 C 205.619 83.292,194.784 80.062,188.974 85.872 M159.632 92.115 C 157.904 94.582,158.440 96.630,161.201 98.107 C 162.719 98.920,163.603 98.765,165.083 97.425 C 167.482 95.254,167.505 93.767,165.171 91.655 C 162.744 89.458,161.416 89.568,159.632 92.115 M329.570 92.204 C 328.255 94.081,328.227 94.710,329.383 96.454 C 331.976 100.366,337.000 99.129,337.000 94.578 C 337.000 89.956,332.215 88.427,329.570 92.204 M158.479 111.932 C 147.814 114.480,142.180 128.083,147.934 137.393 C 155.069 148.937,172.494 148.050,177.949 135.865 L 179.647 132.072 181.417 136.084 C 185.075 144.376,195.784 148.043,203.992 143.814 C 214.793 138.249,217.041 124.841,208.590 116.390 C 200.521 108.321,187.251 110.437,181.812 120.660 L 179.599 124.820 177.878 120.976 C 174.922 114.373,165.888 110.161,158.479 111.932 M289.913 114.280 C 284.588 117.868,281.842 123.459,282.294 129.791 C 282.714 135.680,284.825 139.235,289.990 142.750 C 294.611 145.895,303.363 145.891,308.102 142.742 C 312.026 140.134,316.000 132.969,316.000 128.500 C 316.000 123.481,312.003 116.790,307.500 114.271 C 302.014 111.201,294.475 111.205,289.913 114.280 M223.299 116.960 C 214.720 122.190,215.074 135.884,223.906 140.451 C 227.869 142.501,234.485 142.417,238.117 140.272 C 239.726 139.321,241.980 136.607,243.126 134.239 C 245.957 128.391,245.038 123.803,240.035 118.799 C 236.674 115.439,235.673 115.000,231.368 115.004 C 228.305 115.006,225.313 115.732,223.299 116.960 M257.898 117.270 C 249.048 123.182,249.250 134.523,258.304 140.044 C 266.930 145.304,277.993 138.818,277.993 128.500 C 277.993 123.366,275.175 118.786,270.717 116.670 C 265.909 114.389,261.933 114.575,257.898 117.270 M123.455 123.455 C 122.105 124.805,121.000 127.075,121.000 128.500 C 121.000 131.834,125.166 136.000,128.500 136.000 C 129.925 136.000,132.195 134.895,133.545 133.545 C 134.895 132.195,136.000 129.925,136.000 128.500 C 136.000 125.166,131.834 121.000,128.500 121.000 C 127.075 121.000,124.805 122.105,123.455 123.455 M124.479 145.919 C 118.194 147.447,113.356 152.845,111.600 160.287 C 110.078 166.744,115.096 175.821,121.461 178.122 L 124.824 179.338 120.830 181.314 C 110.568 186.391,108.275 200.475,116.390 208.590 C 124.829 217.029,138.318 214.782,143.750 204.030 C 146.610 198.369,146.593 194.444,143.686 188.907 C 142.066 185.822,139.970 183.734,136.699 181.946 L 132.027 179.392 135.464 178.149 C 142.039 175.772,146.940 166.703,145.453 159.666 C 143.451 150.191,133.565 143.711,124.479 145.919 M154.898 150.270 C 145.745 156.385,145.922 169.213,155.241 175.065 C 159.761 177.903,167.951 177.329,171.603 173.917 C 175.238 170.521,177.001 166.724,176.996 162.300 C 176.985 151.286,163.977 144.205,154.898 150.270 M91.012 160.977 C 90.172 162.547,90.370 163.370,91.977 164.977 C 94.544 167.544,95.522 167.521,97.396 164.845 C 98.482 163.295,98.628 162.174,97.917 160.845 C 96.603 158.389,92.354 158.470,91.012 160.977 M195.250 159.718 C 193.432 160.370,193.718 164.678,195.627 165.410 C 197.488 166.124,200.000 164.402,200.000 162.413 C 200.000 160.798,196.995 159.093,195.250 159.718 M297.329 161.584 C 296.613 163.451,298.390 165.495,299.913 164.554 C 301.501 163.573,301.241 161.306,299.462 160.624 C 298.571 160.282,297.674 160.686,297.329 161.584 M360.209 182.668 C 351.460 186.980,348.847 197.899,354.686 205.751 C 363.548 217.669,382.333 211.383,382.333 196.500 C 382.333 190.673,379.380 185.969,374.015 183.250 C 368.792 180.602,364.745 180.432,360.209 182.668 M392.547 186.093 C 383.540 194.001,386.359 206.796,397.805 209.957 C 412.936 214.135,421.765 192.242,407.938 184.827 C 402.540 181.932,396.743 182.409,392.547 186.093 M88.420 186.885 C 78.847 192.723,83.096 208.000,94.293 208.000 C 99.182 208.000,102.367 206.126,104.506 201.989 C 107.573 196.058,105.463 189.397,99.643 186.635 C 95.163 184.509,92.209 184.575,88.420 186.885 M160.000 196.393 C 160.000 199.314,162.815 200.613,164.814 198.614 C 166.845 196.583,165.567 194.000,162.531 194.000 C 160.528 194.000,160.000 194.499,160.000 196.393 M397.123 214.094 C 392.586 215.042,388.963 217.878,386.266 222.594 C 381.329 231.228,385.129 242.470,394.333 246.461 L 397.165 247.689 394.200 248.917 C 381.284 254.267,380.491 273.125,392.907 279.675 C 404.002 285.528,416.615 279.064,417.781 266.926 C 418.036 264.277,417.958 260.967,417.608 259.573 C 416.738 256.108,411.655 250.514,408.000 249.000 L 404.991 247.754 409.022 245.759 C 423.027 238.830,419.790 216.844,404.358 214.080 C 402.236 213.700,398.980 213.706,397.123 214.094 M89.741 216.418 C 84.842 218.181,83.262 219.566,80.927 224.143 C 78.475 228.950,78.493 232.321,81.000 237.500 C 84.791 245.332,95.156 248.415,102.010 243.750 C 107.483 240.025,109.500 236.504,109.500 230.677 C 109.500 220.108,99.512 212.901,89.741 216.418 M121.299 218.960 C 112.048 224.600,112.756 238.283,122.544 243.021 C 127.648 245.492,130.092 245.507,134.790 243.095 C 139.468 240.693,142.333 235.869,142.333 230.392 C 142.333 219.985,130.323 213.457,121.299 218.960 M360.334 221.373 C 355.849 225.146,354.433 229.164,355.882 234.002 C 357.364 238.948,361.653 242.107,366.988 242.180 C 372.044 242.250,375.747 239.850,377.664 235.261 C 380.779 227.806,376.084 220.215,367.780 219.279 C 364.119 218.866,362.908 219.206,360.334 221.373 M88.450 250.353 C 76.777 255.644,75.919 272.770,87.039 278.520 C 91.133 280.637,98.833 280.399,102.710 278.035 C 106.449 275.755,110.000 269.410,110.000 265.008 C 110.000 254.338,97.864 246.085,88.450 250.353 M122.256 252.645 C 111.455 257.969,113.270 274.842,124.984 277.996 C 129.779 279.287,134.869 277.790,138.473 274.028 C 142.267 270.068,143.088 262.053,140.174 257.420 C 136.538 251.640,128.590 249.522,122.256 252.645 M362.452 254.406 C 358.345 256.195,356.000 260.069,356.000 265.065 C 356.000 268.434,356.630 269.830,359.400 272.600 C 362.187 275.387,363.557 276.000,367.000 276.000 C 370.443 276.000,371.813 275.387,374.600 272.600 C 377.451 269.749,378.000 268.480,378.000 264.735 C 378.000 259.166,375.294 255.453,370.205 254.040 C 365.732 252.798,366.193 252.776,362.452 254.406 M122.001 283.069 C 118.737 284.441,115.162 287.824,113.405 291.200 C 111.310 295.227,111.617 303.860,113.995 307.759 C 117.782 313.970,126.075 317.193,132.961 315.130 C 140.810 312.778,145.231 306.966,145.231 299.000 C 145.231 289.783,138.802 282.894,129.678 282.335 C 126.830 282.161,123.375 282.491,122.001 283.069 M360.450 284.351 C 356.324 286.223,352.220 291.308,351.428 295.529 C 349.898 303.689,353.765 310.599,361.519 313.560 C 379.071 320.263,390.947 297.009,375.763 285.672 C 372.453 283.201,364.498 282.515,360.450 284.351 M396.643 284.997 C 385.263 288.531,383.452 306.045,393.906 311.451 C 403.930 316.635,415.314 309.599,415.328 298.212 C 415.339 289.174,405.530 282.237,396.643 284.997 M87.615 289.088 C 84.460 291.570,81.999 296.006,82.004 299.200 C 82.006 300.465,82.886 302.941,83.960 304.701 C 89.686 314.093,103.006 312.389,106.160 301.862 C 109.253 291.537,96.057 282.448,87.615 289.088 M160.480 298.032 C 160.092 298.660,160.245 299.645,160.820 300.220 C 162.164 301.564,165.297 300.392,164.750 298.749 C 164.194 297.078,161.364 296.602,160.480 298.032 M332.000 299.000 C 332.000 299.550,332.450 300.000,333.000 300.000 C 333.550 300.000,334.000 299.550,334.000 299.000 C 334.000 298.450,333.550 298.000,333.000 298.000 C 332.450 298.000,332.000 298.450,332.000 299.000 M358.092 318.162 C 352.042 322.312,350.500 325.326,350.500 333.000 C 350.500 340.939,352.235 344.097,358.594 347.734 C 366.062 352.004,375.485 350.164,380.618 343.434 C 383.137 340.132,383.500 338.804,383.500 332.901 C 383.500 327.639,383.045 325.537,381.438 323.385 C 377.667 318.333,374.394 316.619,367.739 316.209 C 362.456 315.884,360.978 316.183,358.092 318.162 M326.763 322.565 C 321.507 325.417,319.471 333.143,322.456 338.915 C 324.085 342.066,329.409 345.000,333.497 345.000 C 341.937 345.000,347.738 334.443,343.364 327.040 C 340.042 321.416,332.585 319.406,326.763 322.565 M396.000 328.000 C 394.889 329.111,394.000 331.333,394.000 333.000 C 394.000 334.667,394.889 336.889,396.000 338.000 C 400.515 342.515,408.000 339.119,408.000 332.557 C 408.000 326.583,400.330 323.670,396.000 328.000 M90.832 331.470 C 89.971 333.359,90.005 334.301,90.975 335.470 C 94.185 339.337,100.359 335.408,98.000 331.000 C 96.450 328.103,92.240 328.380,90.832 331.470 M195.500 332.000 C 194.771 333.180,195.717 335.000,197.059 335.000 C 197.577 335.000,198.000 334.100,198.000 333.000 C 198.000 330.891,196.545 330.309,195.500 332.000 M298.000 333.000 C 298.000 333.550,298.450 334.000,299.000 334.000 C 299.550 334.000,300.000 333.550,300.000 333.000 C 300.000 332.450,299.550 332.000,299.000 332.000 C 298.450 332.000,298.000 332.450,298.000 333.000 M193.123 351.085 C 185.338 352.732,179.426 361.039,180.438 368.909 C 182.362 383.868,201.123 388.213,210.298 375.824 C 213.377 371.667,213.711 364.038,211.024 359.256 C 207.517 353.016,200.068 349.616,193.123 351.085 M325.500 351.357 C 319.219 354.263,316.000 359.875,316.000 367.917 C 316.000 373.222,318.506 377.839,323.323 381.408 C 327.362 384.400,338.641 384.399,342.677 381.406 C 351.999 374.491,352.423 360.238,343.508 353.439 C 339.105 350.080,330.427 349.077,325.500 351.357 M292.450 352.407 C 290.773 353.137,288.204 355.158,286.740 356.897 C 277.129 368.319,287.574 385.366,302.471 382.572 C 309.796 381.197,315.931 372.126,314.694 364.500 C 313.082 354.566,301.700 348.378,292.450 352.407 M224.873 356.684 C 216.896 361.634,217.174 373.482,225.357 377.365 C 230.041 379.588,233.079 379.420,237.102 376.717 C 241.939 373.468,243.800 367.807,241.686 362.772 C 238.867 356.058,230.666 353.088,224.873 356.684 M362.000 356.711 C 352.460 361.588,353.688 375.029,363.956 378.105 C 369.282 379.701,374.741 377.055,377.412 371.584 C 379.147 368.030,379.193 367.298,377.912 363.674 C 375.396 356.559,368.338 353.471,362.000 356.711 M257.707 358.016 C 252.105 362.422,252.105 371.578,257.707 375.984 C 260.632 378.285,268.508 378.718,271.046 376.718 C 274.116 374.299,276.000 370.480,276.000 366.677 C 276.000 363.601,275.298 362.098,272.600 359.400 C 269.749 356.549,268.480 356.000,264.735 356.000 C 261.772 356.000,259.407 356.678,257.707 358.016 M223.180 385.682 C 217.810 388.328,214.678 393.299,214.198 399.937 C 213.701 406.808,215.371 410.656,220.571 414.622 C 229.187 421.193,242.100 417.725,246.461 407.667 L 247.689 404.835 248.968 407.922 C 254.361 420.944,274.291 421.377,280.095 408.599 C 282.595 403.094,282.471 398.204,279.697 392.960 C 273.071 380.430,253.991 381.387,248.989 394.500 L 247.845 397.500 246.544 394.500 C 242.725 385.690,231.648 381.509,223.180 385.682 M191.020 388.752 C 180.160 394.208,180.572 408.880,191.718 413.629 C 195.937 415.427,198.442 415.359,202.717 413.330 C 207.288 411.161,209.992 406.639,209.996 401.154 C 210.001 395.461,207.499 391.420,202.456 388.979 C 197.437 386.549,195.481 386.510,191.020 388.752 M291.299 388.960 C 287.202 391.457,284.678 396.343,284.672 401.788 C 284.656 415.225,303.974 420.290,311.040 408.701 C 313.376 404.871,313.601 398.062,311.524 394.047 C 308.140 387.503,297.908 384.929,291.299 388.960 M328.000 396.000 C 325.198 398.802,325.317 404.408,328.223 406.443 C 333.305 410.003,340.000 406.909,340.000 401.000 C 340.000 399.333,339.111 397.111,338.000 396.000 C 336.889 394.889,334.667 394.000,333.000 394.000 C 331.333 394.000,329.111 394.889,328.000 396.000 M159.200 397.200 C 158.540 397.860,158.000 399.570,158.000 401.000 C 158.000 406.272,163.691 407.928,166.592 403.500 C 168.109 401.184,168.109 400.816,166.592 398.500 C 164.837 395.821,161.216 395.184,159.200 397.200 " stroke="none" fill="#221f20" fill-rule="evenodd"/><path d="M328.741 115.453 C 323.858 117.165,321.991 118.780,320.345 122.718 C 316.552 131.793,321.085 139.940,331.290 142.389 C 334.940 143.264,342.264 140.053,344.540 136.579 C 351.751 125.574,340.975 111.165,328.741 115.453 M360.495 121.414 C 357.342 124.567,356.473 128.313,358.025 132.059 C 359.673 136.038,362.637 138.000,367.000 138.000 C 371.363 138.000,374.327 136.038,375.975 132.059 C 379.778 122.879,367.484 114.425,360.495 121.414 M359.290 149.965 C 349.994 155.633,350.002 169.372,359.304 175.044 C 368.742 180.798,381.997 173.471,381.997 162.500 C 381.997 151.519,368.742 144.202,359.290 149.965 M326.304 150.956 C 319.579 155.057,317.391 162.365,320.978 168.748 C 323.798 173.764,327.618 176.000,333.369 176.000 C 341.793 176.000,348.354 167.210,346.016 159.057 C 343.534 150.403,333.783 146.396,326.304 150.956 M398.200 159.200 C 396.555 160.845,396.691 164.499,398.452 165.960 C 400.400 167.577,402.962 166.951,404.617 164.454 C 407.203 160.552,401.510 155.890,398.200 159.200 M331.190 196.750 C 331.376 197.713,332.190 198.500,333.000 198.500 C 333.810 198.500,334.624 197.713,334.810 196.750 C 335.046 195.522,334.506 195.000,333.000 195.000 C 331.494 195.000,330.954 195.522,331.190 196.750 M257.400 223.400 C 251.239 229.561,253.539 238.583,261.910 241.091 C 266.932 242.596,272.173 240.263,274.423 235.522 C 276.384 231.388,276.399 229.672,274.506 226.011 C 272.413 221.963,269.203 220.000,264.677 220.000 C 261.601 220.000,260.098 220.702,257.400 223.400 M224.455 224.455 C 219.733 229.176,222.379 238.046,228.939 239.487 C 235.019 240.822,240.963 234.684,239.445 228.638 C 237.853 222.293,229.068 219.841,224.455 224.455 M258.299 253.960 C 249.417 259.375,250.228 272.002,259.727 276.204 C 264.907 278.495,268.699 277.966,272.995 274.351 C 279.952 268.497,278.644 257.431,270.540 253.586 C 266.086 251.472,262.183 251.591,258.299 253.960 M225.763 255.516 C 222.750 257.205,220.000 261.731,220.000 265.000 C 220.000 273.832,231.729 278.424,238.077 272.077 C 242.196 267.958,242.231 261.554,238.156 257.650 C 234.675 254.314,229.496 253.423,225.763 255.516 M122.218 319.663 C 112.437 324.484,111.340 339.359,120.356 344.900 C 125.619 348.134,129.903 348.397,134.926 345.794 C 145.836 340.140,145.721 324.953,134.729 319.964 C 129.568 317.621,126.511 317.547,122.218 319.663 M156.309 319.947 C 148.803 323.354,145.942 332.566,150.094 339.954 C 157.459 353.057,177.010 347.651,176.996 332.516 C 176.991 327.030,173.876 322.300,168.729 319.964 C 163.443 317.564,161.562 317.562,156.309 319.947 M158.500 353.092 C 154.504 354.333,152.671 355.849,150.130 360.018 C 144.763 368.822,150.187 379.521,161.000 381.460 C 168.850 382.867,177.004 375.249,176.996 366.516 C 176.988 357.261,167.425 350.320,158.500 353.092 M123.750 359.080 C 122.787 359.641,121.296 361.460,120.437 363.123 C 115.870 371.954,127.034 380.176,134.672 373.606 C 138.638 370.194,138.638 363.806,134.672 360.394 C 131.726 357.861,126.851 357.274,123.750 359.080 " stroke="none" fill="#e66925" fill-rule="evenodd"/></svg>