<?xml version="1.0" encoding="UTF-8" standalone="no"?>
<!-- Created with Inkscape (http://www.inkscape.org/) -->

<svg
   version="1.1"
   id="svg1"
   width="7066.6665"
   height="4400"
   viewBox="0 0 7066.6665 4400"
   sodipodi:docname="shutterstock_2442555901.eps"
   xmlns:inkscape="http://www.inkscape.org/namespaces/inkscape"
   xmlns:sodipodi="http://sodipodi.sourceforge.net/DTD/sodipodi-0.dtd"
   xmlns="http://www.w3.org/2000/svg"
   xmlns:svg="http://www.w3.org/2000/svg">
  <defs
     id="defs1" />
  <sodipodi:namedview
     id="namedview1"
     pagecolor="#ffffff"
     bordercolor="#000000"
     borderopacity="0.25"
     inkscape:showpageshadow="2"
     inkscape:pageopacity="0.0"
     inkscape:pagecheckerboard="0"
     inkscape:deskcolor="#d1d1d1">
    <inkscape:page
       x="0"
       y="0"
       inkscape:label="1"
       id="page1"
       width="7066.6665"
       height="4400"
       margin="0"
       bleed="0" />
  </sodipodi:namedview>
  <g
     id="g1"
     inkscape:groupmode="layer"
     inkscape:label="1">
    <g
       id="group-R5">
      <path
         id="path2"
         d="M 53000,0 H 0 V 33000 H 53000 V 0"
         style="fill:#f1f1f1;fill-opacity:1;fill-rule:nonzero;stroke:none"
         transform="matrix(0.13333333,0,0,-0.13333333,0,4400)" />
      <path
         id="path3"
         d="M 26500,0 H 0 V 33000 H 26500 V 0"
         style="fill:#21242c;fill-opacity:1;fill-rule:nonzero;stroke:none"
         transform="matrix(0.13333333,0,0,-0.13333333,0,4400)" />
      <path
         id="path4"
         d="m 15886.3,18212.3 c -550.4,741.6 -1394.9,1167 -2316.9,1167 -922.1,0 -1766.6,-425.4 -2317,-1167 l -1024.5,760.3 c 781.9,1053.5 2031,1682.4 3341.5,1682.4 1310.4,0 2559.6,-628.9 3341.4,-1682.5 l -1024.5,-760.2"
         style="fill:#f1f1f1;fill-opacity:1;fill-rule:nonzero;stroke:none"
         transform="matrix(0.13333333,0,0,-0.13333333,0,4400)" />
      <path
         id="path5"
         d="m 12243.6,12553.5 c -1694.5,569.6 -2833.02,2154.1 -2833.02,3942.8 h 1275.82 c 0,-1240.2 789.1,-2338.7 1963.7,-2733.6 l -406.5,-1209.2"
         style="fill:#f1f1f1;fill-opacity:1;fill-rule:nonzero;stroke:none"
         transform="matrix(0.13333333,0,0,-0.13333333,0,4400)" />
      <path
         id="path6"
         d="M 14843.5,12536.5 14453,13751 c 1195.9,384.6 1999.4,1487.8 1999.4,2745.3 h 1275.7 c 0,-898.1 -281.8,-1753.3 -815,-2473.2 -522.2,-705.1 -1237.9,-1219.2 -2069.6,-1486.6"
         style="fill:#f1f1f1;fill-opacity:1;fill-rule:nonzero;stroke:none"
         transform="matrix(0.13333333,0,0,-0.13333333,0,4400)" />
      <path
         id="path7"
         d="m 13610,9956.3 c -1052.9,0 -2101.2,253.1 -3031.5,731.8 -899.65,462.9 -1694.58,1138 -2298.92,1952.3 l 1024.48,760.3 c 1022.84,-1378.2 2592.24,-2168.6 4305.94,-2168.6 1713.7,0 3283.1,790.4 4305.9,2168.6 l 1024.5,-760.3 c -604.3,-814.3 -1399.3,-1489.4 -2298.9,-1952.3 -930.3,-478.8 -1978.6,-731.8 -3031.5,-731.8"
         style="fill:#f1f1f1;fill-opacity:1;fill-rule:nonzero;stroke:none"
         transform="matrix(0.13333333,0,0,-0.13333333,0,4400)" />
      <path
         id="path8"
         d="m 20244,16590.3 h -1275.8 c 0,2304.9 -1466.7,4346.5 -3649.7,5080.3 l 406.4,1209.3 c 2703,-908.6 4519.1,-3436.2 4519.1,-6289.6"
         style="fill:#f1f1f1;fill-opacity:1;fill-rule:nonzero;stroke:none"
         transform="matrix(0.13333333,0,0,-0.13333333,0,4400)" />
      <path
         id="path9"
         d="M 8251.77,16590.3 H 6976 c 0,1432.6 449.48,2796.8 1299.88,3944.9 833.27,1125 1974.92,1945.1 3301.42,2371.7 l 390.6,-1214.5 C 9745.16,20977.6 8251.77,18927.3 8251.77,16590.3"
         style="fill:#f1f1f1;fill-opacity:1;fill-rule:nonzero;stroke:none"
         transform="matrix(0.13333333,0,0,-0.13333333,0,4400)" />
      <path
         id="path10"
         d="m 14725,16496.3 c 0,-638.3 -517.4,-1155.7 -1155.6,-1155.7 -638.3,0 -1155.7,517.4 -1155.7,1155.7 0,638.2 517.4,1155.7 1155.7,1155.7 638.2,0 1155.6,-517.5 1155.6,-1155.7"
         style="fill:#f1f1f1;fill-opacity:1;fill-rule:nonzero;stroke:none"
         transform="matrix(0.13333333,0,0,-0.13333333,0,4400)" />
      <path
         id="path11"
         d="m 42525.2,18212.3 c -550.4,741.6 -1394.9,1167 -2317,1167 -922.1,0 -1766.5,-425.4 -2316.9,-1167 l -1024.5,760.3 c 781.8,1053.5 2030.9,1682.4 3341.4,1682.4 1310.5,0 2559.6,-628.9 3341.5,-1682.5 l -1024.5,-760.2"
         style="fill:#21242c;fill-opacity:1;fill-rule:nonzero;stroke:none"
         transform="matrix(0.13333333,0,0,-0.13333333,0,4400)" />
      <path
         id="path12"
         d="m 38882.5,12553.5 c -1694.5,569.6 -2833.1,2154.1 -2833.1,3942.8 h 1275.8 c 0,-1240.2 789.2,-2338.7 1963.7,-2733.6 l -406.4,-1209.2"
         style="fill:#21242c;fill-opacity:1;fill-rule:nonzero;stroke:none"
         transform="matrix(0.13333333,0,0,-0.13333333,0,4400)" />
      <path
         id="path13"
         d="m 41482.4,12536.5 -390.6,1214.5 c 1195.9,384.6 1999.4,1487.8 1999.4,2745.3 H 44367 c 0,-898.1 -281.8,-1753.3 -815,-2473.2 -522.3,-705.1 -1237.9,-1219.2 -2069.6,-1486.6"
         style="fill:#21242c;fill-opacity:1;fill-rule:nonzero;stroke:none"
         transform="matrix(0.13333333,0,0,-0.13333333,0,4400)" />
      <path
         id="path14"
         d="m 40248.9,9956.3 c -1053,0 -2101.2,253.1 -3031.6,731.8 -899.6,462.9 -1694.5,1138 -2298.9,1952.3 l 1024.5,760.3 c 1022.8,-1378.2 2592.3,-2168.6 4306,-2168.6 1713.7,0 3283.1,790.4 4305.9,2168.6 l 1024.5,-760.3 C 44974.9,11826.1 44180,11151 43280.4,10688.1 42350,10209.3 41301.8,9956.3 40248.9,9956.3"
         style="fill:#21242c;fill-opacity:1;fill-rule:nonzero;stroke:none"
         transform="matrix(0.13333333,0,0,-0.13333333,0,4400)" />
      <path
         id="path15"
         d="m 46882.9,16590.3 h -1275.8 c 0,2304.9 -1466.7,4346.5 -3649.8,5080.3 l 406.5,1209.3 c 2703,-908.6 4519.1,-3436.2 4519.1,-6289.6"
         style="fill:#21242c;fill-opacity:1;fill-rule:nonzero;stroke:none"
         transform="matrix(0.13333333,0,0,-0.13333333,0,4400)" />
      <path
         id="path16"
         d="m 34890.6,16590.3 h -1275.7 c 0,1432.6 449.4,2796.8 1299.8,3944.9 833.3,1125 1974.9,1945.1 3301.5,2371.7 l 390.6,-1214.5 C 36384,20977.6 34890.6,18927.3 34890.6,16590.3"
         style="fill:#21242c;fill-opacity:1;fill-rule:nonzero;stroke:none"
         transform="matrix(0.13333333,0,0,-0.13333333,0,4400)" />
      <path
         id="path17"
         d="m 41363.9,16496.3 c 0,-638.3 -517.4,-1155.7 -1155.7,-1155.7 -638.2,0 -1155.7,517.4 -1155.7,1155.7 0,638.2 517.5,1155.7 1155.7,1155.7 638.3,0 1155.7,-517.5 1155.7,-1155.7"
         style="fill:#21242c;fill-opacity:1;fill-rule:nonzero;stroke:none"
         transform="matrix(0.13333333,0,0,-0.13333333,0,4400)" />
    </g>
  </g>
</svg>
